/usr/bin/ffmpeg -hide_banner -y -y -r 41 -start_number 0 -start_number_range 1 -i /home/toms/Documents/GameProjects/bunny-tower-defense-project/BTD-Project_0.2/Assets/Bunnies/Animations/frame%04d.png -i /home/toms/Documents/GameProjects/bunny-tower-defense-project/BTD-Project_0.2/Assets/Bunnies/Animations/KritaTempPalettegen_%06d.png -lavfi [0:v][1:v]paletteuse=dither=sierra2_4a:diff_mode=none -f gif -loop 0 -gifflags +transdiff /home/toms/Documents/GameProjects/bunny-tower-defense-project/BTD-Project_0.2/Assets/Bunnies/Animations/Slasher.gif
=====================================================
Input #0, image2, from '/home/toms/Documents/GameProjects/bunny-tower-defense-project/BTD-Project_0.2/Assets/Bunnies/Animations/frame%04d.png':
  Duration: 00:00:00.24, start: 0.000000, bitrate: N/A
  Stream #0:0: Video: png, rgba(pc, gbr/unknown/unknown), 1581x2048 [SAR 2834:2834 DAR 1581:2048], 25 fps, 25 tbr, 25 tbn
Input #1, image2, from '/home/toms/Documents/GameProjects/bunny-tower-defense-project/BTD-Project_0.2/Assets/Bunnies/Animations/KritaTempPalettegen_%06d.png':
  Duration: 00:00:00.04, start: 0.000000, bitrate: N/A
  Stream #1:0: Video: png, rgba(pc, gbr/unknown/unknown), 16x16 [SAR 1:1 DAR 1:1], 25 fps, 25 tbr, 25 tbn
Stream mapping:
  Stream #0:0 (png) -> paletteuse
  Stream #1:0 (png) -> paletteuse
  paletteuse:default -> Stream #0:0 (gif)
Press [q] to stop, [?] for help
Output #0, gif, to '/home/toms/Documents/GameProjects/bunny-tower-defense-project/BTD-Project_0.2/Assets/Bunnies/Animations/Slasher.gif':
  Metadata:
    encoder         : Lavf61.7.100
  Stream #0:0: Video: gif, pal8(pc, gbr/unknown/unknown, progressive), 1581x2048 [SAR 1:1 DAR 1581:2048], q=2-31, 200 kb/s, 41 fps, 100 tbn
      Metadata:
        encoder         : Lavc61.19.101 gif
frame=    2 fps=0.0 q=-0.0 size=       0KiB time=00:00:00.04 bitrate=   0.0kbits/s speed=0.0974x    [out#0/gif @ 0x55681e0f86c0] video:1348KiB audio:0KiB subtitle:0KiB other streams:0KiB global headers:0KiB muxing overhead: 0.001449%
frame=    6 fps=0.0 q=-0.0 Lsize=    1348KiB time=00:00:00.14 bitrate=75435.1kbits/s speed=0.159x    
